<svg width="20" height="20" viewBox="0 0 20 20" fill="none" xmlns="http://www.w3.org/2000/svg">
<path d="M8.36064 2.72601C9.03121 1.31334 10.9687 1.31333 11.6393 2.72601L12.7982 5.16749C13.0645 5.72846 13.5792 6.11728 14.1746 6.20724L16.7661 6.59875C18.2655 6.82528 18.8642 8.74112 17.7792 9.84074L15.9041 11.7412C15.4732 12.1778 15.2766 12.807 15.3783 13.4235L15.821 16.107C16.0771 17.6596 14.5096 18.8437 13.1685 18.1106L10.8506 16.8437C10.3181 16.5526 9.68184 16.5526 9.14927 16.8437L6.83143 18.1106C5.49029 18.8437 3.92281 17.6596 4.17895 16.107L4.62162 13.4235C4.72333 12.807 4.52672 12.1778 4.09586 11.7412L2.22069 9.84074C1.13568 8.74113 1.7344 6.82528 3.23384 6.59875L5.82527 6.20724C6.4207 6.11728 6.93543 5.72846 7.20172 5.16749L8.36064 2.72601Z" stroke="#101316" stroke-opacity="0.8" stroke-linejoin="round"/>
</svg>
