<svg width="36" height="36" viewBox="0 0 36 36" fill="none" xmlns="http://www.w3.org/2000/svg">
<path d="M21 28.5V10.5M21 28.5H24M21 28.5H13.5M21 10.5C21 7.18629 18.3137 4.5 15 4.5H9C5.68629 4.5 3 7.18629 3 10.5V22.5C3 25.2978 4.915 27.6484 7.50577 28.3125M21 10.5H25.8137C26.5758 10.5 27.3094 10.7901 27.8655 11.3114L32.0518 15.2361C32.6568 15.8032 33 16.5955 33 17.4247V25.5C33 27.1569 31.6569 28.5 30 28.5M30 28.5C30 30.1569 28.6569 31.5 27 31.5C25.3431 31.5 24 30.1569 24 28.5M30 28.5C30 26.8431 28.6569 25.5 27 25.5C25.3431 25.5 24 26.8431 24 28.5M13.5 28.5C13.5 30.1569 12.1569 31.5 10.5 31.5C8.84315 31.5 7.5 30.1569 7.5 28.5C7.5 28.437 7.50194 28.3745 7.50577 28.3125M13.5 28.5C13.5 26.8431 12.1569 25.5 10.5 25.5C8.90613 25.5 7.60258 26.743 7.50577 28.3125" stroke="#101316" stroke-width="2.25"/>
<path d="M15 12H12" stroke="#101316" stroke-width="2.25" stroke-linecap="round" stroke-linejoin="round"/>
<path d="M15 18H9" stroke="#101316" stroke-width="2.25" stroke-linecap="round" stroke-linejoin="round"/>
</svg>
