<svg xmlns="http://www.w3.org/2000/svg"  viewBox="0 0 32 32" width="32px" height="32px" baseProfile="basic"><path fill="none" stroke="#000" stroke-linecap="round" stroke-linejoin="round" stroke-miterlimit="10" stroke-width="2" d="M5.296,15.689c-0.062,3.099,2.27,5.352,6,5.811c-1.399,1.375-3.73,1.833-6.527,1.833C6.634,25.625,9.897,27,13.16,27 c10.482,0,14.229-8.005,14.229-15.347c1.043-0.992,1.266-1.461,1.611-2.577l-0.917-0.524c0,0,0.897-1.318,0.897-2.689 c-1.35,0.076-2.301,0.327-3.294,0.991C24.472,5.655,23.309,5,21.67,5c-3.148,0-5.345,2.219-5.287,5.473 C11.296,10.042,7.566,8.208,3.61,5.875c-1.264,2.507-0.706,5.541,3.024,6.458"/><path fill="none" stroke="#000" stroke-linecap="round" stroke-linejoin="round" stroke-miterlimit="10" stroke-width="2" d="M4.022,10.93c-0.862,2.98,0.977,5.539,4.011,5.961"/></svg>