<svg width="14" height="17" viewBox="0 0 14 17" fill="none" xmlns="http://www.w3.org/2000/svg">
<path fill-rule="evenodd" clip-rule="evenodd" d="M12.4892 4.23747C12.4746 4.33173 12.4577 4.42806 12.4389 4.52705C11.7901 7.87183 9.57027 9.02733 6.73528 9.02733H5.29178C4.94504 9.02733 4.65281 9.28003 4.59889 9.62345L3.65052 15.6635C3.6154 15.8891 3.78848 16.0922 4.01503 16.0922H6.57528C6.87838 16.0922 7.13593 15.8711 7.18368 15.5709L7.2088 15.4403L7.69085 12.3689L7.72185 12.2004C7.76902 11.8992 8.02716 11.6779 8.33026 11.6779H8.71313C11.1936 11.6779 13.1355 10.6668 13.703 7.74069C13.94 6.51837 13.8173 5.4977 13.19 4.77989C13.0001 4.56348 12.7646 4.38381 12.4892 4.23747Z" fill="#298FC2"/>
<path fill-rule="evenodd" clip-rule="evenodd" d="M11.8102 3.96579C11.711 3.93673 11.6087 3.91047 11.5038 3.88672C11.3983 3.86356 11.2904 3.84306 11.1791 3.82506C10.7899 3.76192 10.3634 3.73198 9.90665 3.73198H6.05041C5.95535 3.73198 5.86514 3.75351 5.78448 3.79246C5.60656 3.87831 5.47447 4.04737 5.44245 4.25433L4.62204 9.4714L4.59853 9.62349C4.65245 9.28007 4.94468 9.02738 5.29141 9.02738H6.73491C9.56991 9.02738 11.7897 7.87129 12.4385 4.52709C12.4579 4.42811 12.4742 4.33178 12.4888 4.23752C12.3247 4.15004 12.1469 4.07525 11.9555 4.01152C11.9082 3.99574 11.8594 3.98054 11.8102 3.96579Z" fill="#22284F"/>
<path fill-rule="evenodd" clip-rule="evenodd" d="M5.44245 4.25433C5.47447 4.04737 5.60675 3.87833 5.78467 3.79306C5.86592 3.75397 5.95554 3.73243 6.0506 3.73243H9.90684C10.3636 3.73243 10.7901 3.76253 11.1793 3.82566C11.2905 3.84351 11.3985 3.86416 11.504 3.88732C11.6089 3.91093 11.7112 3.93733 11.8104 3.96625C11.8596 3.981 11.9083 3.99634 11.9561 4.01153C12.1475 4.07526 12.3255 4.15064 12.4896 4.23753C12.6826 3.00149 12.488 2.15991 11.8224 1.39784C11.0885 0.558762 9.76418 0.199707 8.06944 0.199707H3.14934C2.8032 0.199707 2.50788 0.452403 2.4544 0.796411L0.405147 13.8388C0.364744 14.0968 0.56294 14.3296 0.822109 14.3296H3.85956L5.44245 4.25433Z" fill="#28356A"/>
</svg>
