<svg width="24" height="16" viewBox="0 0 24 16" fill="none" xmlns="http://www.w3.org/2000/svg">
<path d="M24 7.91655C24 12.0161 20.6833 15.3329 16.5837 15.3329C14.8532 15.3329 13.267 14.7354 12.0103 13.7466C13.7408 12.3869 14.8326 10.2857 14.8326 7.91655C14.8326 5.54746 13.7202 3.44617 12.0103 2.08651C13.267 1.09767 14.8532 0.500244 16.5837 0.500244C20.6833 0.500244 24 3.83758 24 7.91655Z" fill="#F79E1B"/>
<path d="M12.0103 2.08651C12.0103 2.08651 12.0103 2.08651 12.0103 2.08651C13.7202 3.44617 14.8326 5.54746 14.8326 7.91655C14.8326 10.2857 13.7408 12.3869 12.0103 13.7466L11.9896 13.7466C10.2798 12.4075 9.16738 10.2857 9.16738 7.9166C9.16738 5.5475 10.2798 3.44621 11.9897 2.08656C11.9897 2.08654 11.9897 2.08657 11.9897 2.08656L12.0103 2.08651Z" fill="#FF5F00"/>
<path d="M9.16738 7.9166C9.16738 5.5475 10.2798 3.44621 11.9897 2.08656C10.733 1.09771 9.14678 0.500276 7.41631 0.500276C3.31674 0.500276 0 3.81701 0 7.91659C0 12.0162 3.31674 15.3329 7.41631 15.3329C9.14678 15.3329 10.733 14.7354 11.9896 13.7466C10.2798 12.4075 9.16738 10.2857 9.16738 7.9166Z" fill="#EB001B"/>
</svg>
