<svg width="28" height="10" viewBox="0 0 28 10" fill="none" xmlns="http://www.w3.org/2000/svg">
<path d="M20.3742 0.869886C19.9308 0.693979 19.2275 0.499756 18.3579 0.499756C16.138 0.499756 14.5748 1.68353 14.5652 3.37598C14.5467 4.62466 15.6844 5.3182 16.5353 5.73455C17.405 6.16 17.7007 6.43769 17.7007 6.81692C17.6918 7.39934 16.9979 7.66781 16.3507 7.66781C15.4532 7.66781 14.9723 7.52939 14.2415 7.20536L13.9455 7.06646L13.6309 9.01803C14.1582 9.25822 15.1295 9.47138 16.138 9.48072C18.4967 9.48072 20.0323 8.31526 20.0505 6.51169C20.0595 5.52202 19.4587 4.76369 18.1636 4.14402C17.3774 3.74623 16.8959 3.478 16.8959 3.071C16.9051 2.70099 17.3031 2.32201 18.1906 2.32201C18.9214 2.30345 19.4584 2.47911 19.8651 2.65489L20.0685 2.74721L20.3742 0.869886Z" fill="#3362AB"/>
<path d="M12.2252 9.35115H9.97722L11.3833 0.657346H13.6311L12.2252 9.35115Z" fill="#3362AB"/>
<path fill-rule="evenodd" clip-rule="evenodd" d="M26.1367 0.657346H24.3979C23.8617 0.657346 23.4543 0.814446 23.223 1.37867L19.8839 9.35103H22.2426C22.2426 9.35103 22.631 8.27801 22.7144 8.04691H25.6006C25.6651 8.35213 25.8688 9.35103 25.8688 9.35103H27.9502L26.1367 0.657346ZM23.3619 6.27124C23.547 5.7718 24.2593 3.83879 24.2593 3.83879C24.2556 3.84623 24.2846 3.76592 24.3278 3.64616L24.3283 3.6447L24.3286 3.64374C24.3932 3.46486 24.489 3.19935 24.5551 3.00646L24.7122 3.75557C24.7122 3.75557 25.1379 5.83658 25.2303 6.27124H23.3619Z" fill="#3362AB"/>
<path d="M8.09965 0.657346L5.89818 6.5857L5.65761 5.38336L5.65739 5.38261L4.87138 1.38814C4.74194 0.832885 4.34415 0.675662 3.85392 0.657346H0.237196L0.200195 0.833007C1.0823 1.05858 1.87126 1.38363 2.56256 1.78778L4.56615 9.34194H6.94329L10.4767 0.657346H8.09965Z" fill="#3362AB"/>
</svg>
