<svg width="26" height="12" viewBox="0 0 26 12" fill="none" xmlns="http://www.w3.org/2000/svg">
<path fill-rule="evenodd" clip-rule="evenodd" d="M11.9531 8.96867V5.94167H13.5154C14.1556 5.94167 14.6959 5.72716 15.1364 5.3041L15.2421 5.19684C16.0468 4.32092 15.9939 2.95639 15.1364 2.14601C14.7077 1.71699 14.1203 1.4846 13.5154 1.49652H11.0075V8.96867H11.9531ZM11.9532 5.02402V2.41413H13.5392C13.8799 2.41413 14.203 2.54522 14.4439 2.78357C14.9549 3.28409 14.9667 4.11831 14.4732 4.63671C14.2324 4.89293 13.8917 5.03594 13.5392 5.02402H11.9532Z" fill="#3C4043"/>
<path fill-rule="evenodd" clip-rule="evenodd" d="M19.653 4.25538C19.2477 3.87998 18.6956 3.6893 17.9967 3.6893C17.0981 3.6893 16.4227 4.02299 15.9763 4.6844L16.8103 5.21472C17.1157 4.76186 17.5327 4.53543 18.0613 4.53543C18.3961 4.53543 18.7191 4.66057 18.9717 4.88699C19.2184 5.10151 19.3593 5.41136 19.3593 5.73908V5.95955C18.9952 5.75696 18.5371 5.6497 17.9732 5.6497C17.3154 5.6497 16.7868 5.80463 16.3933 6.12044C15.9998 6.43624 15.8001 6.85335 15.8001 7.38367C15.7884 7.86632 15.9939 8.32514 16.3581 8.63499C16.7281 8.96867 17.198 9.13552 17.75 9.13552C18.402 9.13552 18.9188 8.84354 19.3123 8.25959H19.3535V8.96867H20.2579V5.81654C20.2579 5.15513 20.0582 4.63077 19.653 4.25538ZM17.0865 8.0272C16.8927 7.88419 16.7752 7.6518 16.7752 7.40154C16.7752 7.12148 16.9044 6.8891 17.157 6.70438C17.4155 6.51966 17.7386 6.42432 18.1204 6.42432C18.6491 6.41836 19.0603 6.53754 19.354 6.77588C19.354 7.18107 19.1954 7.53263 18.884 7.83056C18.6021 8.11658 18.2203 8.27746 17.8208 8.27746C17.5565 8.28342 17.298 8.19404 17.0865 8.0272Z" fill="#3C4043"/>
<path d="M22.2901 11.2151L25.4499 3.85615H24.4221L22.9597 7.52668H22.942L21.4444 3.85615H20.4165L22.4898 8.64095L21.3151 11.2151H22.2901Z" fill="#3C4043"/>
<path d="M8.68854 5.28621C8.68854 4.99424 8.66505 4.70227 8.61806 4.41625H4.6301V6.0668H6.91481C6.82084 6.59712 6.51543 7.07381 6.06906 7.37174V8.4443H7.43166C8.23042 7.69947 8.68854 6.59712 8.68854 5.28621Z" fill="#4285F4"/>
<path d="M4.63027 9.48111C5.76969 9.48111 6.73274 9.09975 7.43166 8.4443L6.06906 7.37174C5.68729 7.63392 5.19998 7.78289 4.63027 7.78289C3.52609 7.78289 2.59224 7.02614 2.25746 6.01317H0.85375V7.12148C1.57029 8.56944 3.03274 9.48111 4.63027 9.48111Z" fill="#34A853"/>
<path d="M2.25746 6.01317C2.08124 5.48285 2.0814 4.90488 2.25762 4.3686V3.26625H0.853686C0.248641 4.47586 0.248641 5.90593 0.853686 7.11554L2.25746 6.01317Z" fill="#FBBC04"/>
<path d="M4.63027 2.59887C5.23522 2.58695 5.81667 2.81934 6.2513 3.2424L7.46119 2.01492C6.69179 1.28796 5.68159 0.888733 4.63027 0.90065C3.03274 0.90065 1.57023 1.8183 0.853686 3.26625L2.25746 4.37455C2.59224 3.35562 3.52609 2.59887 4.63027 2.59887Z" fill="#EA4335"/>
</svg>
