<svg width="30" height="8" viewBox="0 0 30 8" fill="none" xmlns="http://www.w3.org/2000/svg">
<path fill-rule="evenodd" clip-rule="evenodd" d="M3.88132 0.400391L0.600098 7.66163H4.52818L5.01515 6.50388H6.12825L6.61522 7.66163H10.9389V6.778L11.3242 7.66163H13.5608L13.946 6.75933V7.66163H22.9382L24.0316 6.53395L25.0554 7.66163L29.674 7.67097L26.3824 4.05128L29.674 0.400391H25.127L24.0627 1.50723L23.0711 0.400391H13.2888L12.4488 2.27458L11.5891 0.400391H7.66921V1.25395L7.23315 0.400391H3.88132ZM17.3093 1.4315H22.473L24.0523 3.13748L25.6826 1.4315H27.2619L24.8623 4.05026L27.2619 6.63884H25.6109L24.0316 4.91304L22.393 6.63884H17.3093V1.4315ZM18.5844 3.46146V2.50939H21.8064L23.2123 4.03054L21.7441 5.56H18.5844V4.52161H21.4015V3.46146H18.5844ZM4.64138 1.4315H6.55611L8.73255 6.35538V1.4315H10.8301L12.5111 4.9619L14.0604 1.4315H16.1474V6.64191H14.8775L14.8671 2.55906L13.0157 6.64191H11.8797L10.018 2.55906V6.64191H7.40546L6.91018 5.47381H4.23436L3.74011 6.64089H2.34036L4.64138 1.4315ZM4.69126 4.39396L5.57283 2.31307L6.45338 4.39396H4.69126Z" fill="#1F72CD"/>
</svg>
