<svg width="36" height="36" viewBox="0 0 36 36" fill="none" xmlns="http://www.w3.org/2000/svg">
<path d="M31.5 19.5V22.5C31.5 24.9853 29.4853 27 27 27C24.5147 27 22.5 24.9853 22.5 22.5V19.5C22.5 17.0147 24.5147 15 27 15C29.4853 15 31.5 17.0147 31.5 19.5ZM31.5 19.5V16.5C31.5 9.04416 25.4558 3 18 3C10.5442 3 4.5 9.04416 4.5 16.5V19.5M4.5 19.5V22.5C4.5 24.9853 6.51472 27 9 27C11.4853 27 13.5 24.9853 13.5 22.5V19.5C13.5 17.0147 11.4853 15 9 15C6.51472 15 4.5 17.0147 4.5 19.5ZM31.5 21V24C31.5 28.9706 27.4706 33 22.5 33H18" stroke="#101316" stroke-width="2.25" stroke-linecap="round" stroke-linejoin="round"/>
</svg>
